<svg id="Layer_1" data-name="Layer 1" xmlns="http://www.w3.org/2000/svg" viewBox="0 0 527.21 155.8"><defs><style>.cls-1{fill:#231f20;fill-rule:evenodd;}</style></defs><title>tislohsignature</title><g id="_Group_" data-name="&lt;Group&gt;"><path id="_Path_" data-name="&lt;Path&gt;" class="cls-1" d="M343.74,129.62a22.89,22.89,0,0,1,0,3.89,44.14,44.14,0,0,1-1.47,5.65c-.17.55-.72,1-1.08,1.5-.07.11,0,.3,0,.46a1.29,1.29,0,0,0,.36,0l2.73-.74a1.81,1.81,0,0,1,.26,0c1.59,0,3.92,3.45,3.2,4.86-.17.32-.68.48-1,.74a2.16,2.16,0,0,0-.31.4,1.56,1.56,0,0,1,.49.14c.15.08.24.27.37.41-.68.43-1.38.86-2.09,1.26a1.68,1.68,0,0,1-.41-.58c0-.13.09-.34.14-.5-.14.09-.35.14-.42.27-.38.61-.8.46-1.32.18a5.35,5.35,0,0,0-1.14-.33c-.1,0-.26,0-.31,0a1.34,1.34,0,0,0-1.64-.35,2.64,2.64,0,0,0-1.29,3.62c.81,1.26,1.43,2.67,3,3.18.22.07.5.19.68.12a20,20,0,0,0,2.29-1.32,4.89,4.89,0,0,0,1.42-1.43c.37-.64.43-1.38,1.39-1.52.27,0,.58-.65.65-1.05.52-3,2.76-4.12,5.28-4.57,1-.18,2.19.74,3.18,1.35a9.72,9.72,0,0,1,1.9,1.73,26.81,26.81,0,0,1,2,2.34c.43.59.78.53,1.43.32,2.56-.86,4.37-2.83,6.52-4.26a24,24,0,0,1,4.33-2.51,7.17,7.17,0,0,1,3.19-.1,7.9,7.9,0,0,1,2.37.71,9.33,9.33,0,0,1,1.42,1.17c.49.39,1.08.65,1.52,1.08s.92.79,1.68.43a21.8,21.8,0,0,1,3.17-1.08,3.9,3.9,0,0,1,1.9-.2,48.43,48.43,0,0,1,7.26,2.28c2.22,1,3.48,3.2,4.6,5.37a4.13,4.13,0,0,1,.71,2.94c-.08.34-.35.84-.59.87a1.79,1.79,0,0,1-1.22-.37c-1.79-1.39-3.54-2.84-5.32-4.25a1,1,0,0,0-.46-.18c-1.47-.13-3-.34-4.44-.37-1.18,0-2.41-.14-3.18,1.19-.6,1-3.56,1.39-5,.88a8.61,8.61,0,0,1-2.16-.79,1.81,1.81,0,0,1-.54-1.54,2.39,2.39,0,0,0-1.3-2.88c-1-.61-1.9-.08-2.83-.21-.1,0-.39.37-.34.47.63,1.7-.83,1.2-1.44,1.22-.78,0-1.19,0-1.18,1,0,.37-.53.82-.92,1.11-1.1.83-2.32,1.53-3.36,2.43a6.49,6.49,0,0,1-7.08,1,4.21,4.21,0,0,1-1.3-1c-.38-.38-.56-.87-1.33-.53-.45.2-.74-.2-.48-.82s.65-1.67-.09-2a3.65,3.65,0,0,0-2.43.18c-2.07.74-2.94,2.54-4.24,4a28.86,28.86,0,0,1-2.43,2.26,22.67,22.67,0,0,1-1.82,1.41,1.07,1.07,0,0,1-.71.24c-1.94-.37-4-.06-5.74-1.42-2.38-1.85-4.26-3.92-4.54-7.11-.08-1-.37-1-1.21-.48a36.1,36.1,0,0,1-5.23,3.45c-2.49,1.1-4.73,2.62-7.37,3.51a69.2,69.2,0,0,1-11.64,3.26c-4.49.65-8.9,1.67-13.39,2.24a78.59,78.59,0,0,1-10.17.69c-1.32,0-2.64.4-3.95.37-2.24,0-4.53.2-6.7-.72a1.89,1.89,0,0,1-.87-2.62,5.06,5.06,0,0,1,4.09-3.18,4.64,4.64,0,0,1,1.43,0c1.91.29,3.81.75,5.74.88a38.75,38.75,0,0,0,4.91-.19c1.9-.08,3.81-.11,5.69-.32,1.28-.14,2.53-.58,3.81-.8,3.43-.61,6.88-1.12,10.3-1.76a40.74,40.74,0,0,0,5.93-1.38c2.27-.8,4.43-1.92,6.63-2.95a33.17,33.17,0,0,0,4.46-2.23,59.3,59.3,0,0,0,5.13-4c1.11-.93,2.1-2,3.14-3,.16-.16.38-.33.39-.52.08-1.51,1.32-2.34,2-3.49.2-.36,0-.91.13-1.34.3-1.26.7-2.5,1-3.76.22-.95-.66-1.81,0-3,.46-.8,0-2.21-.23-3.3a6.65,6.65,0,0,0-1-2.12c-1.44-2.22-2.77-4.54-4.83-6.29a67.26,67.26,0,0,0-5.25-4.24,28.11,28.11,0,0,0-4-1.88c-.93-.43-1.88-.81-2.81-1.27-1.47-.74-3.11-.57-4.61-.91-1.7-.39-3.32.4-4.93-.13-.08,0-.34.35-.44.58s-.28.66-.43,1c-.13-.24-.29-.49-.4-.74-.31-.72-.88-.39-.94,0-.27,1.63-1.8,1-2.64,1.57-1.24.84-3,.09-4.23,1.29-.25.25-1.05-.16-1.58-.09a4.23,4.23,0,0,0-1.27.56,6.22,6.22,0,0,0-.54.38,4,4,0,0,1-.29-.65c0-.1.12-.29.07-.36a6.62,6.62,0,0,0-.82-.78c-.05,0-.22.06-.34.1l.39.78a1.81,1.81,0,0,1-1.76,2.75c-1.05,0-1.52.67-1.14,1.61.23.59.31,1-.29,1.48-.34.27,0,1.27-1,.82-.64,1.22-1.32-.06-2,0a2.44,2.44,0,0,1-2.33-.55.72.72,0,0,0-.59.17c-1,2.17-2.15,4.31-3.06,6.55-1,2.41-1.72,4.91-2.68,7.34a40.86,40.86,0,0,1-2.28,4.79c-1.52,2.76-3.45,5.33-4.65,8.22a56.67,56.67,0,0,1-5.4,9.68c-1.1,1.66-1.65,3.61-3,5.16a7.14,7.14,0,0,0-1.1,3c-.16.68-.48,1-1.11,1a18.28,18.28,0,0,1-3.1,0c-.93-.14-1.69-2-1.13-3.07.71-1.31,1.05-2.8,2.3-3.87.74-.63,1-1.81,1.55-2.71s1.25-2.07,1.83-3.12,1.15-2.19,1.75-3.27c.34-.61.76-1.15,1.07-1.75,1-1.91,2-3.83,3-5.72s2.16-3.71,3.15-5.63c.82-1.57,1.52-3.19,2.26-4.8,1-2.11,1.29-4.5,2.77-6.42.53-.68.48-1.78.83-2.62.46-1.17,1.1-2.26,1.57-3.43s.79-2.42,1.19-3.63c.59-1.81,1.17-3.6,1.76-5.38a5.32,5.32,0,0,0,.3-.86c.19-1.28,0-1.47-1.11-.93-1.6.76-3.13,1.68-4.73,2.45s-3.34,1.46-5,2.25c-.34.15-.52.63-.85.76a4.21,4.21,0,0,1-1.75.33c-1.19-.07-2.22,0-2.9,1.23a1.55,1.55,0,0,1-1.21.57c-.93,0-1.14.77-1.63,1.23a4,4,0,0,0-.73,1,2.07,2.07,0,0,0-.39,1c0,1-.59,1.39-1.46,1-.15-.07-.43-.18-.49-.12a16.1,16.1,0,0,0-1.37,1.83c-.11.17.1.54.18.8s.16.52.22.78l-.53-.5c-.09-.07-.28-.18-.31-.15s-.24.28-.23.41c.28,1.72-1,2.62-2,3.54a5.68,5.68,0,0,0-1.28,1.5c-1,1.73-2.22,3.33-3.25,5-.55.92-.86,2-1.36,2.94-.18.34-.57.76-.89.77-1,0-1.95-.36-3-.23-.29,0-1.16-1.34-1-1.92a57.91,57.91,0,0,1,1.83-6c.21-.65.51-1.27.76-1.91.66-1.69,1.23-3.49,2.89-4.46,1.43-.82,1.79-2.35,2.66-3.52.37-.49.38-1.44.73-2.16a20.34,20.34,0,0,0,1.58-4.19,19.17,19.17,0,0,0,.18-4c0-.11-.46-.34-.64-.3a3,3,0,0,0-.81.54,5,5,0,0,1-2.67.92c-1.19.07-2.34,1.09-3.48,1.71-.42.23-1.16.46-1.17.7,0,1.52-2.29,1.23-2.21,2.84a9.46,9.46,0,0,1-.28,1.54c-.07.62-.2,1-1,.68a1.11,1.11,0,0,0-1,.07c-1.76,1.72-3.64,3.3-4.31,5.88a9.68,9.68,0,0,1-1.62,2.47c-.68,1.05-1.38,2.1-2,3.18-1.37,2.31-2.68,4.65-4.06,7-1.21,2.06-2.44,4.12-3.72,6.13-1,1.51-2.14,2.92-3.09,4.46-1.4,2.29-2.71,4.65-4.05,7-.11.18-.19.43-.35.55-1.65,1-2.41,2.81-3.42,4.37s-2.08,3.39-3.16,5.06c-1.91,3-3.88,5.92-5.8,8.88-1.34,2.1-2.59,4.26-4,6.35s-2.9,4.19-4.31,6.3a66.4,66.4,0,0,0-4.41,6.93c-.89,1.77-2.42,3.3-2.48,5.53,0,1.05-1.31,1.65-2.4,1.41-.39-.09-.76-.21-1.15-.27-2-.31-2.62-1.6-1.61-3.42,1.37-2.47,2.7-5,4.12-7.4,1.51-2.6,3.07-5.16,4.65-7.71s3.13-5.12,4.84-7.58,3.69-4.8,5.44-7.28c1-1.48,1.81-3.17,2.79-4.71,1.41-2.22,2.94-4.35,4.38-6.56,1.3-2,2.53-4,3.81-6,.6-.95,1.27-1.85,1.86-2.8.91-1.45,1.78-2.93,2.67-4.38.25-.4.59-.74.84-1.13.53-.82,1-1.65,1.55-2.46.85-1.32,1.73-2.6,2.57-3.92,1.69-2.66,3.42-5.3,5-8,.6-1,.67-2.36,1.18-3.45a7.12,7.12,0,0,1,2-3.1c1.1-.83,1.72-2.32,2.52-3.54,1.3-2,2.6-3.92,3.83-5.92a30,30,0,0,0,1.6-3.05c.69-1.49,1.36-3,2-4.53.8-1.88,1.55-3.79,2.37-5.67.34-.78.82-1.51,1.22-2.26.16-.29.49-.68.42-.92-.36-1.05.31-1.57.93-2.17.33-.34.86-.67.44-1.29,0-.07,0-.25.1-.35.68-1.07.7-1.1-.65-1.42-.5-.12-1-.08-.7-.84,0-.06-.31-.36-.5-.38a5.64,5.64,0,0,0-4.13.32s-.09.06-.12,0c-1.69-.72-2.64,1.15-4.17,1.18-2.3.07-4.45,1-6.7,1.45-1.93.41-3.8,1-5.7,1.57-.21,0-.49.19-.63.12-1.21-.68-2,.34-3,.64S225,90.77,224,91c-.37.08-.76,0-1.13.08a9.83,9.83,0,0,0-4.24,1,3.35,3.35,0,0,1-.6.22c-1.43.45-2.84.92-4.28,1.29a7.82,7.82,0,0,1-1.9.08c-1,0-1.85-.19-2.66.78-.42.52-1.59.37-2.4.58-2.11.52-4.21,1.1-6.32,1.6-1.87.46-3.76.8-5.62,1.25-1,.24-2,.61-2.95.9-2.89.84-5.79,1.7-8.68,2.53-.4.12-.87,0-1.27.12-1.65.46-3.28,1-4.94,1.44-2.19.59-4.39,1.09-6.6,1.67-2,.52-4,1.1-6,1.61-1,.27-2.09.31-3.05.67-2.12.77-4.43.71-6.53,1.69a26.35,26.35,0,0,1-4.71,1.14c-2.56.67-5.09,1.39-7.65,2-.83.22-1.71.19-2.53.38-.67.15-1.27.49-1.92.65a26.57,26.57,0,0,1-3.06.56,23.14,23.14,0,0,0-5.2,1.66,1.19,1.19,0,0,1-.49.15c-1.91-.31-3.47.8-5.17,1.3-1.86.53-3.71,1.11-5.59,1.6-2.64.66-5.3,1.27-7.95,1.92-3.15.79-6.31,1.53-9.44,2.37-2.66.71-5.29,1.54-7.94,2.3l-2.37.66c-3.33.88-6.74,1.53-10,2.73-1.58.6-3.17,1.13-4.78,1.59-3.5,1-7,1.91-10.53,2.93-1.6.48-3.12,1.2-4.72,1.7-2.61.83-5.28,1.54-7.91,2.37-.91.28-1.76.76-2.66,1.11-1.43.58-2.87,1.13-4.3,1.69a5.75,5.75,0,0,0-.86.31c-.38.26-.74.57-1.1.84a6.13,6.13,0,0,0,1,.7c2.6,1.11,5.23,2.19,7.85,3.3a11.18,11.18,0,0,1,1.84.91.92.92,0,0,1,.19.87,2.29,2.29,0,0,1-3.13.9c-1-.81-2.16-.35-3.18-.75-1.64-.62-3.32-1.14-5-1.72-.22-.07-.42-.27-.64-.36a11.51,11.51,0,0,1-3.11-1.44c-.46-.37-1.41-.23-2.11-.18s-1.61.21-2-.77-.47-2,.44-2.71a25.54,25.54,0,0,1,3.95-2.64,55.66,55.66,0,0,1,6-2.47c2.43-.89,5-1.56,7.37-2.47,3.88-1.48,7.83-2.78,11.79-4,2.23-.7,4.53-1.13,6.79-1.75s4.55-1.32,6.83-2c3.17-.92,6.32-1.89,9.5-2.77,2-.56,4.13-1,6.19-1.52a9.81,9.81,0,0,0,2.84-1.11,13.38,13.38,0,0,1,5.12-1.81c1.55-.34,3.08-.8,4.64-1.14a19.59,19.59,0,0,1,2.25-.27,5.29,5.29,0,0,0,.65-.1c3.28-.89,6.56-1.77,9.83-2.7,1.36-.39,2.67-1,4-1.36,1.19-.34,2.44-.5,3.66-.75.6-.12,1.19-.27,1.78-.43,2.83-.78,5.64-1.63,8.49-2.35,3.13-.82,6.3-1.47,9.43-2.28,1.36-.36,2.66-1,4-1.36.93-.28,1.93-.31,2.89-.53,2.72-.65,5.42-1.35,8.12-2,4.2-1.06,8.41-2.09,12.57-3.23,2.63-.71,5.19-1.66,7.82-2.4,1.29-.37,2.64-.46,3.95-.78,2.43-.61,4.85-1.3,7.27-1.91,2.93-.76,5.87-1.46,8.81-2.15,2.09-.49,4.22-.89,6.32-1.36s4.14-1.06,6.24-1.45a19.65,19.65,0,0,1,3.22-.11c.23,0,.58,0,.67-.09.7-1,1.71-1,2.79-1.05a9.52,9.52,0,0,0,2.13-.52c1.73-.43,3.48-.83,5.2-1.3,1.12-.3,2.21-.7,3.32-1.05a9.49,9.49,0,0,1,1-.4c2.67-.56,5.35-1.08,8-1.65A11.55,11.55,0,0,0,243,81.3a1.37,1.37,0,0,1,.6-.22c2.43.18,4.57-1,6.88-1.47.58-.1,1.17-.27,1.75-.41,2.34-.58,4.67-1.15,7-1.75,1.47-.37,2.95-.75,4.41-1.17,2-.58,4-1.2,6.07-1.75,1.62-.42,3.28-.75,4.9-1.18,1.95-.5,3.87-1.08,5.82-1.55a16.16,16.16,0,0,1,3.06-.46c1.71-.06,3.2-.82,4.79-1.26,2.27-.63,4.64-.92,7-1.43,1.52-.34,3-.89,4.53-1.22,2-.45,4.07-.79,6.09-1.16.43-.09.85-.12,1.28-.24,1.49-.37,3-.7,4.46-1.18,2.47-.83,5.09-1,7.56-1.9a31.63,31.63,0,0,1,4.42-.86c2.56-.5,5.08-1.11,7.65-1.54a6,6,0,0,0,2.89-1.08c.32-.25,1,0,1.53,0,2.11-.26,4.23-.48,6.31-.87,1.33-.24,2.6-.75,3.93-1.08.84-.21,1.73-.23,2.56-.43.52-.12,1.25,0,1.42-.83,0-.1.43-.18.66-.2.92-.11,1.86-.11,2.75-.28,2-.4,4.08-.84,6.1-1.35,1.63-.4,3.26-.87,4.87-1.36s2.92-1.38,4.38-1.36a18.92,18.92,0,0,0,4.95-.83,4.1,4.1,0,0,0,1.7-1c.4-.36.72-.72,1.19-.27.63.62,1,.44,1.3-.28.1-.22.41-.34.55-.55.86-1.23.94-1.27,2.12-.49.55.37,1,.7,1.08-.34a.72.72,0,0,1,.37-.5c1.18-.51,2.37-1,3.56-1.47.66-.24,1.62.45,2-.66,2-.23,3.57-1.32,5.29-2.12a4.12,4.12,0,0,1,3-.41,6.56,6.56,0,0,0,2.72-.31c.93-.18,1.83-.5,2.77-.69a3,3,0,0,1,3,1.68.77.77,0,0,1,0,.61c-.82,1.13-1.21,2.67-3,2.93-.69.09-1.27.71-1.95,1-1.74.62-3.52,1.13-5.25,1.75s-3.23,1.36-4.89,1.88c-1.35.43-2.79.53-4.14.93-1.64.49-3.24,1.14-4.87,1.69-.89.31-1.81.59-2.73.83-1.49.38-3,.74-4.51,1.11l-6.12,1.49a6.69,6.69,0,0,1-.74.24,52.19,52.19,0,0,0-9.17,2c-.49.15-1.06,0-1.57.16s-1.07.46-1.63.56A14.11,14.11,0,0,1,350,61a2.81,2.81,0,0,0-1.3.23c-1.75.53-3.54.9-5.32,1.31-.25.06-.62,0-.75.14a2.2,2.2,0,0,1-2.23.56c-1.55-.22-2.83.7-4.25,1a31.52,31.52,0,0,1-3.9,1c-3,.13-5.75,1.28-8.69,1.6a44.4,44.4,0,0,0-5.9,1.52,4.2,4.2,0,0,1-1.13,0c-.2,0-.47-.09-.6,0-2,1.42-4.46,1-6.62,1.77-1.68.64-3.61.59-5.31,1.17-3.64,1.23-7.41,1.79-11.1,2.72-2.48.62-4.89,1.44-7.5,1.38-.15,0-.31.22-.47.36s-.47.48-.62.43c-.79-.23-1.44.31-2.1.31a6.43,6.43,0,0,0-2.49.61,26.38,26.38,0,0,1-3.93.84,1.53,1.53,0,0,0-.48.15,18.48,18.48,0,0,1-5.72,1.51A35.51,35.51,0,0,0,264.12,81a4,4,0,0,0-2,4.93c.33.84.36,1.47-.52,2a5.42,5.42,0,0,0-2,3.21c-.06.19-.06.53-.17.57-1.72.5-2,2-2.32,3.41-.1.37-.15,1-.63.21-.12.07-.31.14-.36.26-.5,1-1,2.1-1.47,3.16-.07.16-.05.46-.14.49-1.75.59-.85,2.79-2.18,3.66-.16.1-.08,1,.07,1a2,2,0,0,0,1.21-.07,1.11,1.11,0,0,0,.54-.53c.7-1.29,2-1.29,3.19-1.56a22.6,22.6,0,0,0,3.11-.83,1.93,1.93,0,0,1,2.7,1c.6,1,1.43,1.83,1.25,3.18-.27,2-.41,4-.61,5.94,0,.19,0,.39,0,.58a2.44,2.44,0,0,0,.69-.21c1.39-.85,2.75-1.77,4.18-2.59,1.26-.72,2.57-1.35,3.88-2,1.68-.82,3.37-1.6,5.07-2.38a9.33,9.33,0,0,1,1.1-.39,3.5,3.5,0,0,0,1.81-1.11,5.84,5.84,0,0,1,2.28-1.35c2.52-1,5.07-1.92,7.62-2.87.19-.07.52-.22.57-.15a21.52,21.52,0,0,1,1.57,1.89,1.59,1.59,0,0,1,0,2.16c0,.06-.08.19,0,.25,1.08,1.56-.59,2.65-.73,4a16.72,16.72,0,0,1-1,3.07c-.07.27.12.62.18.93.19-.24.48-.44.54-.72.46-1.78.79-2,2.59-2.37a8.22,8.22,0,0,0,1.61-.8,28.66,28.66,0,0,1,7.94-2.72c2.72-.41,5.39-1.08,8.1-1.48a9.78,9.78,0,0,1,3.16.16c4.6.74,8.71,2.9,13,4.56a7.55,7.55,0,0,1,2.34,1.42c1.87,1.72,4.26,2.79,5.64,5.13.8,1.38,2.26,2.36,3.34,3.58a10.2,10.2,0,0,1,1.45,2.26c1,2.13,2.05,4.26,2.9,6.48a12,12,0,0,1,.35,3.09Z" transform="translate(-35.41 -41.71)"/><path id="_Compound_Path_" data-name="&lt;Compound Path&gt;" class="cls-1" d="M496.7,187.75c-1.64-.45-3.5-.91-5.32-1.45a1.22,1.22,0,0,1-.58-.89,37.92,37.92,0,0,1,0-5.45,7.37,7.37,0,0,1,1.31-3.2,13.83,13.83,0,0,0,1.89-3.3,9.33,9.33,0,0,1,3.46-4.07,72.72,72.72,0,0,1,6.18-4.26c2.89-1.75,5.88-3.29,8.81-5,.78-.45,1.42-1.15,2.21-1.57s1.83-.69,2.73-1.1a1.14,1.14,0,0,0,.57-.78c.38-2.77-.87-5.08-2.24-7.3a25.06,25.06,0,0,0-2.33-2.87,2.49,2.49,0,0,0-.15-.22c-.82-.69-1,1.43-1.46.5-.65-1.37-1.09-.37-1.63-.13-1,.41-2.21.63-2.9,1.35-1.05,1.09-2.5,1.39-3.61,2.31-.39.31-1.27,0-1.15,1a1.17,1.17,0,0,1-.86.42c-.89-.38-1.31,1.18-2.23.47-.1.29-.4.68-.29.86.28.58,0,.72-.42,1-.68.43-1.22,1.08-1.92,1.45a5,5,0,0,1-2.28.7,19.36,19.36,0,0,1-4.64-.53,6.79,6.79,0,0,1-2.33-1.73c-.57-.5-.94-1.27-1.87-.5-.12.12-.71-.07-.83-.27a1.12,1.12,0,0,1,.11-.92c.09-.18.42-.22.65-.32a3.49,3.49,0,0,0-1-.62,8.88,8.88,0,0,0-1.9-.15c-.87,0-1.74,0-2.62.1-.26,0-.68.13-.75.32-.26.68-.4.58-.83.09-.22-.27-.84-.13-1.2-.31-.53-.27-.88-.44-1,.37a8.05,8.05,0,0,1-1.32,0l-.87,0c.22.24.43.46.65.68l.51.48c-.22.19-.41.5-.65.58-.53.15-1.27-.07-1.3.87,0,.06-.49.06-.7.18a9.33,9.33,0,0,0-.92.62c-.27.18-.52.49-.82.53a24.52,24.52,0,0,1-7.88,0c-1.43-.22-3,0-4.31-.48-1.94-.72-4-1.23-5.68-2.65a7.63,7.63,0,0,1-2.14-3.22,1.41,1.41,0,0,1,.09-.85c0-.15.27-.3.25-.42-.37-1.83,1.12-3.14,1.38-4.8a1.83,1.83,0,0,1,.58-.8,14.75,14.75,0,0,1,2.07-2,6.15,6.15,0,0,1,2.8-1.36c1.43-.07,3-.74,4.39.29.4.27,1.8,2.66,1.52,2.8-1.11.57-.62,2-1.28,2.47a15.54,15.54,0,0,1-3.73,1.36c-.29.09-.65,0-.9.11a4.91,4.91,0,0,0-.89.65l.94.36c.22.07.44.11.67.19a4.17,4.17,0,0,1-.8.19c-.34,0-.68-.16-1-.21-.69-.07-1,.22-.88.92,0,.38-.12.77-.1,1.15a.73.73,0,0,0,.41.52,27.58,27.58,0,0,0,3.76,1.05,22.17,22.17,0,0,0,3.31.06,9.92,9.92,0,0,1,3,.08c.75.25.71.37.7-.45a20,20,0,0,1,.52-2.19,1.84,1.84,0,0,1,1.91-1.83c1.21,0,2.41.29,3.61.4a9.28,9.28,0,0,0,1.68-.14c1.68-.22,3.36,0,5.07-.58a11.06,11.06,0,0,1,5-.65,5.42,5.42,0,0,1,4.29,2.55,5.44,5.44,0,0,0,.44.8c1.48,1.83,1.51,1.88,3.78.88,1.87-.81,3.67-1.76,5.49-2.66.19-.09.46-.18.54-.34.85-1.85,2.81-2.34,4.26-3.45a30.89,30.89,0,0,1,3.93-2.41,4.33,4.33,0,0,1,2.09-.65c1.91.06,3.9-.58,5.67.63a4.42,4.42,0,0,1,.71.55,22.14,22.14,0,0,1,2.82,3.26c1.06,1.77,2.45,3.4,2.87,5.57A23.59,23.59,0,0,0,523,154a.78.78,0,0,0,.7.28c2.82-1.35,5.56-2.84,8.44-4.05s6.17-2.28,9.25-3.45a7.74,7.74,0,0,0,1.71-.9,30.59,30.59,0,0,1,3-2.12,4.67,4.67,0,0,1,3.87,0c1.27.48,1.73,1.6,2.43,2.54a.47.47,0,0,1,.1.31c-.37,1.6-.74,3.2-1.12,4.8a3.33,3.33,0,0,1-3.33,2.71c-.45,0-.89-.42-1.35-.65.18-.31.37-.62.53-.95s.24-.54.15-.67a.75.75,0,0,0-.65-.25,16,16,0,0,0-5.38,1.51c-1.32.59-2.58,1.42-4.18,1.3a2.36,2.36,0,0,0-1.61.83c-.62.7-1.78.36-2.25,1.47-.18.41-1.39.57-2.14.53-1.77,0-2.9,1.26-4.36,1.83a7.47,7.47,0,0,0-.72.4l-.5.29c.8,1.12-.72,1.37-.86,2.2-.08.48-.93.8-1.31,1.27a4.71,4.71,0,0,0-.92,1.63,15.57,15.57,0,0,1-4.5,7.77,22.71,22.71,0,0,0-2.41,3.2,23.63,23.63,0,0,1-1.81,2c-1.28,1.29-2.65,2.49-3.9,3.8-2.73,2.89-6.21,4.43-9.85,5.66a20.6,20.6,0,0,1-3.32.46m.11-5.92c0,.68.36.86,1,.55s1.1-.49,1.64-.75c1.69-.79,3.6-1.3,5-2.46a72.49,72.49,0,0,0,6.19-6.25c.84-.87,1.57-1.85,2.33-2.8s1.62-2,2.31-3.1a4.38,4.38,0,0,0,.32-1.59,4.82,4.82,0,0,0-1.66.51c-1.49,1.18-3.42,1.6-4.87,2.87a6.24,6.24,0,0,1-2.26,1.07c-.83.27-.84,1-1.26,1.54s-1.2.31-1.73.63c-1.25.77-1.48,2.55-3.14,3.08-.55.16-.74,1.42-1.13,2.16a2.29,2.29,0,0,1-.6.64c-1.3,1-2.47,2-2.15,3.89" transform="translate(-35.41 -41.71)"/><path id="_Path_2" data-name="&lt;Path&gt;" class="cls-1" d="M406,148.79c.26-2.16.6-4,2-5.37A6,6,0,0,0,409,142c.36-.68.67-1.39,1-2.08,0-.1.16-.31.14-.33-.87-.65,0-1.18.11-1.76a40,40,0,0,1,2.79-8.33,31.06,31.06,0,0,0,1.45-4.52c.44-1.81,2.71-3.16,4.44-1.33a2.35,2.35,0,0,1,.53,1.85c-.55,2.41-1.27,4.8-2,7.18-.36,1.27-.79,2.51-1.18,3.79-.2.65-.41,1.3-.55,2,0,.06.32.28.5.3.86.07,1.72.1,2.58.15,1.32.07,2.66.12,4,.22,1.54.14,3.07.34,4.61.49,1.26.14,2.52.15,3.77.36a13.93,13.93,0,0,1,2.59.83c2.13.83,4.28,1.61,6.36,2.55a3.83,3.83,0,0,1,2,2.46c.67,2.07,1.22,4.24-.55,6a14.26,14.26,0,0,1-3.76,2.25,11.5,11.5,0,0,1-3,1c-1.06.19-2.13.77-3.28.16a1.52,1.52,0,0,0-1.34.15,2.07,2.07,0,0,1-3-.06c-.14-.12-.55,0-.8.14s-.75.59-1.13.62c-1.77.15-3.56.23-5.33.26s-3.61,0-5.41,0a21.41,21.41,0,0,1-3-.23,1.18,1.18,0,0,1-.71-.78c-.08-.36,0-1,.18-1.16a9,9,0,0,1,3-1.4c4.11-.65,8.25-1.47,12.41-.67,1.57.29,2.71-.82,4.14-.68.28,0,.66-.19.86-.09,1.68.87,2.81-.24,4-1a15.64,15.64,0,0,0,2.16-1.69,1,1,0,0,0-.1-1,8,8,0,0,0-3.09-1.47c-2.59-.93-5.3-.86-7.95-1.25a23.87,23.87,0,0,0-4.56.21,7.21,7.21,0,0,1-.89-.12c-.63-.07-1.21-.48-1.92.16-.34.31-1.28-.07-1.95-.12-.43,0-.86,0-1.29,0-.89,0-1.36.23-.66,1.14a1.27,1.27,0,0,1,.11.48c-.17,0-.38.12-.49.06-1.05-.67-1.36.49-2,.83a2.78,2.78,0,0,0-.84,1.08,1.44,1.44,0,0,0-.26.87c.27,1.23-.07,2.12-1.25,2.12a9.24,9.24,0,0,1-3.72-.86c-.49-.23-.6-1.3-.8-1.8" transform="translate(-35.41 -41.71)"/><path id="_Path_3" data-name="&lt;Path&gt;" class="cls-1" d="M559.82,95.22c.28,0,1-.31,1,.76,0,.15.38.27.44.44.25.77,2,.64,1.2,2-.41.72.16,1.52-.37,2.44-.8,1.38-.31,3.11-.11,4.69a6.61,6.61,0,0,1-.27,1.91c0,.1-.25.24-.23.28.62,1.3-.34,2.39-.78,3.35s.24,2.2-1,2.8c-.09,0,0,.41,0,.62-.23.93-.49,1.85-.71,2.78-.09.31-.31.72-.19,1,.58,1.19-.83,1.69-.88,2.63a.6.6,0,0,1-.42,0,2.66,2.66,0,0,1-.57-.4,4.39,4.39,0,0,0-.08.87c.12,1.23-.32,1.69-1.54,1.52-2-.27-2.14-.58-1.69-2.56a5,5,0,0,0,0-1.69,19.75,19.75,0,0,0-.34-2.16c-.15-.58,0-.71.59-.8s1.57-.09.55-1.2c-.34-.38,0-1.42.08-2.15.15-1.08.08-2.37.65-3.17s.12-1.21,0-1.74c-.17-.7-.69-.93-1.21-.29s-.95.58-1.56.18-.55-.49-.17-1.06a12.72,12.72,0,0,0,1-2.58c.35-.92.71-1.85,1.1-2.75.59-1.39,1.15-2.81,1.87-4.13s1.9-1.81,3.68-1.61" transform="translate(-35.41 -41.71)"/><path id="_Path_4" data-name="&lt;Path&gt;" class="cls-1" d="M337.6,190.7c.42-.71.08-.92-.74-.89-.24,0-.72-.31-.7-.44.15-.89.12-2.11.7-2.61.77-.68.56-1.35.71-2.06.09-.43.24-1,.54-1.17a1.67,1.67,0,0,1,1.43.06,6.39,6.39,0,0,1,2.73,3.52c.17.83,1.12,2.49-.63,3.26-.15.06-.09.59-.17.89s-.2.76-.38.82-1-.12-1-.24c-.14-1.48-1-.78-1.65-.58s-.81.24-.83-.56" transform="translate(-35.41 -41.71)"/><path id="_Path_5" data-name="&lt;Path&gt;" class="cls-1" d="M423.4,180.28c.15,1,.23,2,.45,3a1.86,1.86,0,0,1-1.11,2.15c-.58.23-1.26.26-1.48,1.08-.07.27-.71.49-1.12.5s-.65-.32-1-.5c.91-.66-.45-1.4.07-2,.08-.12.43-.12.59,0,1.19.61.93-.15.75-.78s-.58-1.15,0-1.83c.11-.14-.22-.7-.42-1a15.58,15.58,0,0,1-1.48-2.27,1.32,1.32,0,0,1,1.54-1.69c.67.14,1.55.15,1.94.58a13.86,13.86,0,0,1,1.57,2.71,1.54,1.54,0,0,0-.28.11" transform="translate(-35.41 -41.71)"/></g></svg>